HIERARCHY
ROOT Hips
{
  OFFSET 0.0 0.0 0.0
  CHANNELS 6 XPOSITION YPOSITION ZPOSITION ZROTATION XROTATION YROTATION 
  JOINT LeftUpLeg
  {
    OFFSET 0.08945800000000001 -0.0866707 0.0010165200000000001
    CHANNELS 3 ZROTATION XROTATION YROTATION 
    JOINT LeftLeg
    {
      OFFSET 0.0 -0.444227 0.013727000000000001
      CHANNELS 3 ZROTATION XROTATION YROTATION 
      JOINT LeftFoot
      {
        OFFSET -0.0025354900000000005 -0.42092399999999996 -0.014605900000000002
        CHANNELS 3 ZROTATION XROTATION YROTATION 
        End Site
        {
          OFFSET -0.0004 -0.0441509 0.08499100000000001
        }
      }
    }
  }
  JOINT Spine
  {
    OFFSET 0.0 0.118905 0.0
    CHANNELS 3 ZROTATION XROTATION YROTATION 
    JOINT Spine1
    {
      OFFSET 0.0 0.25657399999999997 0.00127663
      CHANNELS 3 ZROTATION XROTATION YROTATION 
      End Site
      {
        OFFSET -0.0029 0.21508359999999999 0.02525291
      }
      JOINT RightArm
      {
        OFFSET -0.162727 -0.05365632 0.0010212299999999997
        CHANNELS 3 ZROTATION XROTATION YROTATION 
        JOINT RightForeArm
        {
          OFFSET -0.26364 0.00099144 -0.0142434
          CHANNELS 3 ZROTATION XROTATION YROTATION 
          End Site
          {
            OFFSET -0.220324 0.0008536199999999999 0.010221599999999999
          }
        }
      }
      JOINT LeftArm
      {
        OFFSET 0.162727 -0.053656319900000006 0.0010212299999999997
        CHANNELS 3 ZROTATION XROTATION YROTATION 
        JOINT LeftForeArm
        {
          OFFSET 0.26259699999999997 0.00099144 -0.0142434
          CHANNELS 3 ZROTATION XROTATION YROTATION 
          End Site
          {
            OFFSET 0.220902 0.0008536199999999999 0.010221599999999999
          }
        }
      }
    }
  }
  JOINT RightUpLeg
  {
    OFFSET -0.08945800000000001 -0.0866707 0.0010165200000000001
    CHANNELS 3 ZROTATION XROTATION YROTATION 
    JOINT RightLeg
    {
      OFFSET 0.0 -0.444227 0.013727000000000001
      CHANNELS 3 ZROTATION XROTATION YROTATION 
      JOINT RightFoot
      {
        OFFSET 0.0025354900000000005 -0.42092399999999996 -0.014605900000000002
        CHANNELS 3 ZROTATION XROTATION YROTATION 
        End Site
        {
          OFFSET 0.0004 -0.0441509 0.08499100000000001
        }
      }
    }
  }
}
MOTION
Frames: 15
Frame Time: 0.033333
1.05918 1.0338414922007648 -0.047148 -0.702367989146275 1.0301499413539505 -95.04299754607621 -0.5319010349755958 -4.7056498640569995 1.4678200323536108 2.2110899690142727 17.374599352185292 15.565999410911767 -3.1892360239665094 -14.478903087517953 -0.03143552543826717 4.249999833675809 -13.184899843596941 -0.07428340318533973 -2.086750003712187 26.033701446063187 0.23605501961449013 78.27073037867954 -24.380956176365597 8.28141995353287 4.330669917302361 20.20350148941179 17.694800328022783 -81.24890459266938 -9.512734013704211 -15.244946368975318 -10.713899618879116 8.179300087704718 -16.812899962769077 0.8671400596530444 -5.6563298073659105 -4.781110220894123 -1.2167200803491396 14.895300447625903 -13.883500129642309 4.0105504768480875 -11.620197419848108 -0.17132446307663304 
1.05819 1.0339114922007646 -0.0470475 -0.6351659713459311 1.0630799908898745 -95.06479950990689 -0.45885803149612747 -4.678130178117372 1.6337600118475994 2.18322002243627 17.315200612068278 15.402500050107294 -3.228376209561856 -14.491805314860107 -0.03143736972274521 4.046840125682011 -13.194300745215818 -0.12323599595684258 -1.8803999570457584 25.965899865719763 0.12634900141342134 78.14297852044362 -24.949388424756155 8.019736623409464 4.533870179544356 20.888499453725075 16.599898805954936 -84.13395600751525 -22.145817751613947 -16.22017443904808 -12.340100212141099 13.602200496222626 -9.647320329978374 0.9177229999031308 -5.640450044432455 -4.716210190287485 -1.2422899607241402 14.842298179666603 -13.91710039149054 4.063560855657025 -11.61955708961342 -0.1713243163342876 
1.0563500000000001 1.0339814922007646 -0.046959799999999996 -0.5034119957823553 1.1220500299147662 -95.11089645661531 -0.34568201039242774 -4.6664800098274455 1.8521500811951739 2.14636005280665 17.262799400755938 15.198000771262528 -3.1795164513341696 -14.521204156595134 -0.031441495183684325 3.615520082898053 -13.255899660019224 -0.22913601130484076 -1.4428300777278267 25.898701049570594 -0.10517799631764041 77.98669696204456 -26.231131479116993 7.557587241146184 4.9365602037617355 22.314900792064904 14.485900616322631 -88.11221334996752 -36.63126416035677 -18.12150273604099 -12.486900614198536 17.808400034298437 0.14756799792627087 0.988596030938945 -5.615580045003968 -4.6560699477586995 -1.241399901697923 14.741598993185812 -13.929200071605218 4.037610405679208 -11.62511686359781 -0.17132754466588748 
1.05425 1.0340514922007649 -0.0470043 -0.40348800909193483 1.1454100239281504 -95.23269922008414 -0.2922270289572039 -4.606750432422507 2.0055800356157554 2.1223899308013134 17.212199651837192 15.128201360586875 -3.0978173570204737 -14.55220467769053 -0.03144589745404781 3.2044701205799884 -13.319700457056314 -0.31049898560617806 -1.1580200472398747 25.913100795888273 -0.2483740128345486 77.9107725792307 -27.553958121335455 6.980206164282442 5.351869856244361 23.611899073936964 12.391000489383327 -87.94027016780161 -38.44227515840731 -17.16211387465349 -9.826899663636349 15.187400317670667 4.252779720668005 0.9965999454291421 -5.554209941537757 -4.6804101806396865 -1.20380003048212 14.658999808005555 -13.783400292261186 3.974776507296499 -11.673456673674929 -0.17135718661966828 
1.05209 1.0340714922007648 -0.0471608 -0.34613800556080543 1.1031400108673513 -95.49570248426465 -0.3358320238356231 -4.469810262205629 2.0815799773973103 2.111620003140673 17.12619903245027 15.287899721118235 -3.0784373355807975 -14.558102546038835 -0.03144674455758745 2.9413900167713147 -13.373899715667656 -0.30326600203811965 -1.1391799309097468 25.999600019084607 -0.2092650033175035 77.83635083803424 -28.45620562012663 6.294001817807002 5.679149896269746 24.277499301007413 10.795200214343424 -86.85530144833426 -39.5739521265138 -14.858866511045761 -9.46134025529445 17.858598509603443 5.5525497786826215 0.9504909391679727 -5.508509999574849 -4.706480158927979 -1.2098700409418515 14.674601667617157 -13.486200832227361 3.992833393027897 -11.786337502540437 -0.17036330071393888 
1.0498699999999999 1.0340514922007649 -0.0473494 -0.23522200334001303 1.0263699652568774 -95.86009990667401 -0.4332999972304687 -4.338180137181612 2.1211000922652388 2.1166000648192584 16.966500671918908 15.618798480743258 -3.043157060640154 -14.549202809550309 -0.03144547056722468 2.790490007107988 -13.477500024998411 -0.21547599315057228 -1.176450032054685 26.0446997581742 -0.08176680256590768 77.64089131455599 -29.057656710512322 5.443565572738605 5.912180155938126 24.49130129750174 9.614179398351826 -85.05367513020332 -39.63561165924609 -11.593191705643523 -10.287499446731683 20.69009953380913 4.818239982995959 0.9243470027375738 -5.569039989773148 -4.624990025714203 -1.3030500429201042 14.76260011733631 -13.191199839332633 4.047244814390335 -11.913287667322525 -0.16689401818282196 
1.0475700000000001 1.0341414922007648 -0.047577100000000004 -0.02180059812635203 0.9543179795372955 -96.20180061047141 -0.5191809815852108 -4.256069737413835 2.2186200391308 2.142439951109886 16.678498915376153 15.885599330102297 -2.9609570146395203 -14.540904129708743 -0.03144432330888753 2.742979851571614 -13.655599768927432 -0.08115440006760066 -1.230440116122697 25.96050060118087 0.07298500023237617 77.35372284109197 -29.514999347147207 4.359771645808492 6.005509995191296 24.523399771506213 8.815810539100083 -83.20550107287873 -39.254237801654675 -8.244957842422403 -11.113699619303935 21.2373001391647 3.0703698149539544 0.9321920086078623 -5.687329901574483 -4.485719907216704 -1.405840014338859 14.752400937358187 -12.977199767352378 4.056451055617865 -11.983417488399278 -0.1653608274771392 
1.04522 1.0344514922007646 -0.0479614 0.2206330127575567 0.8920630464084507 -96.44850021310309 -0.5518700001486273 -4.154550074458997 2.4613500211942436 2.166319999995543 16.26789867832625 15.89139986825493 -2.9938063825658734 -14.50360275910401 -0.03143896054317201 2.8401900920469973 -13.883500129642309 0.08144629727312615 -1.4844400170383676 25.8180006569796 0.2975530023646536 77.13825086334558 -29.86692142903753 3.1683830295436373 5.94046012730974 24.64810024273043 8.416650015136307 -81.74717372281097 -38.682414364341206 -5.508270516067075 -11.879199900722284 20.500500312638742 0.8501119711653795 0.9266919987787096 -5.722300043238125 -4.41474997287204 -1.429100010113926 14.544500224306756 -12.795000202374057 4.053999017705831 -12.00002850846075 -0.16454117809631125 
1.0428 1.0348014922007647 -0.048592199999999995 0.40956901188736183 0.843433006652459 -96.60329962045226 -0.5060419921387805 -3.9695001861626644 2.846430110184039 2.138109824619509 15.824499872881947 15.653400219078543 -3.1583851267026195 -14.441103113103809 -0.03143014266223182 2.9991499383743507 -14.163099899732304 0.23013999575197974 -1.8613100052023956 25.751100661606618 0.5384549750101933 77.04730689454685 -30.125577277811324 2.1994641332732647 5.837979969002869 25.05579935693037 8.079170368245977 -80.92069351248274 -37.816745943650034 -3.7540580904938907 -12.577600403734428 19.86000103076809 -1.39164997617304 0.9132359925052556 -5.641409686010841 -4.413909859604129 -1.3921000216063206 14.256699958344512 -12.655099998925625 4.050622769821729 -12.022058429854978 -0.16362846738804185 
1.04036 1.0350214922007648 -0.0494399 0.5343849826776591 0.8245299778767727 -96.65550275627866 -0.377480009434275 -3.717220318979073 3.3050000464354095 2.035870003594058 15.403399927530444 15.257601001960058 -3.20927622587815 -14.444803368086664 -0.031306495560924096 3.0350299893014854 -14.480301568750512 0.2880709922493834 -2.01906005427301 25.751800755996545 0.6220680163953738 76.97875911603661 -30.249026116870134 1.6982121314550729 5.862000036766512 25.528499673914027 7.390850370675125 -80.80374701351379 -36.177387844725665 -3.048810322838809 -12.941799750657848 19.01479927192486 -3.181759741589696 0.9381010827352754 -5.498049991747797 -4.411350246212667 -1.3593100976700876 14.018100106294812 -12.63389994551555 4.0012114738185645 -12.083018721970989 -0.16191975949698828 
1.03804 1.0351314922007646 -0.0504218 0.5931179927940103 0.8201730108773921 -96.60769826227775 -0.21348399249152186 -3.4583198640556243 3.7461999578537912 1.8962600831853509 15.0694992997652 14.7610991832662 -3.158311702169042 -14.570803282800474 -0.03291336426423571 2.9182401577966144 -14.695000027573402 0.2362119805632682 -1.9220799057952918 25.66890104249281 0.522037975009833 76.90810080907282 -30.16514456367321 1.6607717024677076 6.014749960477854 25.69180095923257 6.413479755637096 -81.22363289274033 -34.48087813792122 -3.252598194792837 -13.036400431983463 18.59200031701732 -4.256859904923441 0.981364995042017 -5.30616009588452 -4.39867981841547 -1.3434899921701629 13.851499839607152 -12.686300303054242 4.007404747848473 -12.22721938327559 -0.1577070002025449 
1.0360500000000001 1.0348714922007647 -0.0514408 0.5454139772790842 0.8058470092584078 -96.56819927830757 -0.0854455998157934 -3.3080300891059564 3.991260315084679 1.7957899214851676 15.154299513405494 14.406699450254456 -3.4161355485245677 -14.853603850290266 -0.04669988766049488 2.8726900531086224 -14.603200577581138 0.16699000101695916 -1.9082699036237605 25.390200296052313 0.4382010048054966 76.93444484870156 -29.946172113977184 1.9710813904482556 6.166500115249435 25.665699391319365 5.521700375522612 -81.80796923661326 -32.584991794149516 -4.0749813588361095 -13.047600234674992 18.623299658888904 -5.177299612568944 1.006110023353033 -5.1617301963559 -4.357170197508363 -1.3609199946018007 14.00399918075332 -12.695299931059381 4.229634344004947 -12.608352476698764 -0.1446975308862937 
1.0345 1.0334714922007646 -0.0522676 0.36820701377977777 0.8707709988879937 -96.63049743372726 0.042304100640636326 -3.470920068970417 3.717859795440116 1.766459915250369 16.216300014241387 14.65649995876933 -4.056598331571844 -15.535999512529779 -0.0859933556408233 3.2189797902546227 -14.10839947599061 0.1705380041463031 -2.0903599721319504 24.899898581577535 0.501161982059365 77.06736716013918 -29.758143836315906 2.526159124907556 6.285520003518315 25.85679954655986 4.913080147829348 -82.16694348882162 -29.264362140459003 -5.0751519990972875 -12.98510058867479 17.481800878755937 -6.810969871461982 1.1197499637117645 -5.294399790794228 -4.172700021517836 -1.464330019131146 14.96470029223511 -12.73139918837019 4.589297164659008 -13.38071624445933 -0.11529197902401529 
1.03343 1.0300444922007648 -0.0526521 0.09083549952500616 1.1601799878431855 -96.64400071771637 0.3304529830599736 -4.269289995439218 2.529949879896913 1.6030499872353412 18.81500087077636 15.851900884284746 -4.600171679591315 -16.939789509622283 -0.15400899971572513 4.055449579130812 -13.214999633495541 0.19057399055056526 -2.208749988893308 24.186799511471524 0.5836869956541036 77.19369150883857 -29.58791844672626 3.228736715483986 6.422210018056842 26.209399524725303 4.6337501702115675 -82.09623054034448 -23.706041278814542 -5.854524821606756 -12.790400069968053 13.612199893167524 -9.649870551859728 1.4443799970608906 -5.852109922848333 -3.821309840609129 -1.5995299852135516 17.008000901315906 -13.002799316361585 4.976067725468382 -14.60080147363517 -0.06299586858155236 
1.0328600000000001 1.0246564922007648 -0.0526119 -0.25430800648026164 1.6716400275410788 -96.28150208789629 0.8463140124608821 -6.021820060042463 0.8316819863505694 1.1276800267815608 23.272199615566382 17.32189932009677 -5.013945820171157 -18.681269181922094 -0.24351427987923163 5.180569992520911 -11.90710036970814 0.08955160405392226 -2.13950019500243 23.20849956381955 0.5152109874909937 77.28225857180612 -29.42444811422576 3.986887286468578 6.552809638289832 26.556700983642113 4.775519711058467 -81.70985356918602 -16.38940432856619 -6.397179509182861 -12.47529953789327 7.3906096065068825 -13.689800233648977 1.8778499486078164 -6.6526998742408 -3.631620119432242 -1.5862499630329312 19.751399315417597 -13.466800533663585 5.53364979147555 -16.184305700621756 0.020262044654953765 
